<svg id="Capa_1" enable-background="new 0 0 512 512" height="512" viewBox="0 0 512 512" width="512" xmlns="http://www.w3.org/2000/svg"><g><g><path d="m329.086 428.72c-31.986-31.986-73.086-37.358-73.086-37.358s5.372 41.1 37.358 73.086 75.78 40.052 75.78 40.052-8.066-43.794-40.052-75.78z" fill="#66b394"/></g><g><path d="m377.292 352.125c-70.255 0-121.292 39.237-121.292 39.237s51.036 39.237 121.292 39.237 127.208-39.237 127.208-39.237-56.953-39.237-127.208-39.237z" fill="#95d6a4"/></g><g><path d="m256 391.362s51.036-39.237 121.292-39.237c7.528 0 14.902.453 22.071 1.258-43.408 32.295-88.078 47.743-115.1 54.741-17.865-8.77-28.263-16.762-28.263-16.762z" fill="#78c2a4"/></g><g><path d="m338.055 230.833c-70.255 70.255-82.055 160.529-82.055 160.529s90.273-11.8 160.528-82.055 87.972-166.445 87.972-166.445-96.19 17.716-166.445 87.971z" fill="#b3e59f"/></g><g><path d="m337.661 231.234c-5.948 69.63-33.268 124.682-50.275 152.946-19.067 5.568-31.386 7.182-31.386 7.182s11.76-89.93 81.661-160.128z" fill="#95d6a4"/></g><g><path d="m182.914 428.72c31.986-31.986 73.086-37.358 73.086-37.358s-5.372 41.1-37.358 73.086-75.78 40.052-75.78 40.052 8.066-43.794 40.052-75.78z" fill="#66b394"/></g><g><path d="m134.708 352.125c70.255 0 121.292 39.237 121.292 39.237s-51.036 39.237-121.292 39.237-127.208-39.237-127.208-39.237 56.953-39.237 127.208-39.237z" fill="#95d6a4"/></g><g><path d="m256 391.362s-51.036-39.237-121.292-39.237c-7.528 0-14.902.453-22.071 1.258 43.408 32.295 88.078 47.743 115.1 54.741 17.865-8.77 28.263-16.762 28.263-16.762z" fill="#78c2a4"/></g><g><path d="m173.945 230.833c70.255 70.255 82.055 160.529 82.055 160.529s-90.273-11.8-160.528-82.055-87.972-166.445-87.972-166.445 96.19 17.716 166.445 87.971z" fill="#b3e59f"/></g><g><path d="m174.339 231.234c5.948 69.63 33.268 124.682 50.275 152.946 19.067 5.568 31.386 7.182 31.386 7.182s-11.76-89.93-81.661-160.128z" fill="#95d6a4"/></g><g><path d="m316.61 204.001c0 108.524-60.61 187.361-60.61 187.361s-60.61-78.837-60.61-187.361 60.61-196.501 60.61-196.501 60.61 87.976 60.61 196.501z" fill="#ccf49f"/></g><g><path d="m287.736 68.454c4.772 29.64 6.828 62.613 3.223 96.868-8.12 77.162-42.52 137.829-66.047 171.313 15.409 34.322 31.088 54.727 31.088 54.727s60.61-78.837 60.61-187.361c0-52.554-14.213-100.288-28.874-135.547z" fill="#b3e59f"/></g><path d="m508.755 385.185c-2.305-1.588-55.102-37.428-122.726-40.362 12.084-8.616 24.206-18.62 35.794-30.21 37.189-37.189 59.676-81.474 71.992-112.076 13.341-33.148 17.875-57.307 18.061-58.319.447-2.427-.328-4.917-2.073-6.662s-4.236-2.517-6.663-2.073c-1.292.238-32.111 6.038-71.913 23.84-3.781 1.691-5.476 6.127-3.784 9.908 1.691 3.781 6.128 5.475 9.908 3.784 24.027-10.747 44.907-16.982 57.109-20.133-7.058 27.147-29.503 97.382-83.245 151.124-45.735 45.742-100.79 66.129-131.815 74.56l61.528-61.528h21.137c4.142 0 7.5-3.358 7.5-7.5s-3.358-7.5-7.5-7.5h-6.137l16.315-16.315h21.138c4.142 0 7.5-3.358 7.5-7.5s-3.358-7.5-7.5-7.5h-6.138l28.108-28.108c2.929-2.929 2.929-7.678 0-10.606-2.929-2.929-7.678-2.929-10.606 0l-28.108 28.108v-6.138c0-4.142-3.358-7.5-7.5-7.5s-7.5 3.358-7.5 7.5v21.138l-16.315 16.315v-6.137c0-4.142-3.358-7.5-7.5-7.5s-7.5 3.358-7.5 7.5v21.137l-39.04 39.04c.615-1.309 1.231-2.632 1.847-3.985 8.706-19.117 18.436-45.076 24.629-75.608 7.881-10.623 16.483-20.625 25.603-29.736 17.938-17.938 39.268-33.976 63.398-47.67 3.603-2.044 4.866-6.622 2.821-10.225-2.044-3.603-6.622-4.865-10.225-2.821-25.303 14.359-47.711 31.219-66.599 50.106-3.557 3.554-7.037 7.24-10.435 11.034 1.137-10.492 1.785-21.368 1.785-32.567 0-57.324-16.807-108.798-30.905-141.885-15.272-35.841-30.392-57.946-31.028-58.87-1.397-2.031-3.706-3.245-6.173-3.245s-4.777 1.213-6.176 3.246c-1.709 2.48-42.019 61.699-56.726 143.751-.731 4.077 1.982 7.975 6.059 8.706 4.077.73 7.975-1.982 8.706-6.059 10.729-59.858 36.312-108.071 48.133-127.998 15.187 25.64 53.114 98.117 53.114 182.354 0 54.533-16.011 101.261-29.443 130.858-5.644 12.436-11.316 22.971-16.167 31.24v-76.727l20.044-20.003c2.932-2.926 2.937-7.675.011-10.606-2.926-2.932-7.675-2.936-10.606-.011l-9.448 9.429v-22.223l20.044-20.003c2.932-2.926 2.937-7.675.011-10.606-2.926-2.932-7.675-2.936-10.606-.011l-9.448 9.429v-22.224l20.044-20.003c2.932-2.926 2.937-7.675.011-10.606s-7.675-2.937-10.606-.011l-9.448 9.429v-41.519c0-4.142-3.358-7.5-7.5-7.5s-7.5 3.358-7.5 7.5v41.519l-9.448-9.429c-2.932-2.927-7.681-2.921-10.606.011-2.926 2.932-2.921 7.681.011 10.606l20.044 20.003v22.224l-9.448-9.429c-2.932-2.927-7.681-2.922-10.606.011-2.926 2.932-2.921 7.681.011 10.606l20.044 20.003v22.223l-9.448-9.429c-2.932-2.927-7.681-2.921-10.606.011-2.926 2.932-2.921 7.681.011 10.606l20.044 20.003v76.727c-4.851-8.269-10.524-18.805-16.167-31.24-13.438-29.597-29.449-76.325-29.449-130.858 0-6.688.243-13.565.722-20.439.288-4.132-2.829-7.715-6.961-8.003-4.131-.28-7.715 2.829-8.003 6.961-.503 7.219-.758 14.446-.758 21.481 0 11.2.648 22.076 1.785 32.567-3.397-3.793-6.876-7.478-10.432-11.03-37.184-37.189-81.466-59.676-112.067-71.992-33.147-13.341-57.305-17.875-58.317-18.061-2.426-.447-4.917.328-6.663 2.073-1.745 1.745-2.519 4.236-2.072 6.663.465 2.52 11.834 62.42 51.671 122.954 1.441 2.19 3.833 3.378 6.272 3.378 1.415 0 2.846-.4 4.116-1.236 3.46-2.277 4.419-6.928 2.142-10.388-28.117-42.724-41.609-86.035-46.791-106.025 27.151 7.06 97.373 29.505 151.104 83.245 9.118 9.108 17.72 19.11 25.601 29.733 6.193 30.531 15.923 56.49 24.629 75.608.616 1.354 1.232 2.677 1.847 3.985l-39.04-39.04v-21.137c0-4.142-3.358-7.5-7.5-7.5s-7.5 3.358-7.5 7.5v6.137l-16.315-16.315v-21.138c0-4.142-3.358-7.5-7.5-7.5s-7.5 3.358-7.5 7.5v6.138l-28.108-28.108c-2.929-2.929-7.678-2.929-10.606 0-2.929 2.929-2.929 7.678 0 10.606l28.108 28.108h-6.138c-4.142 0-7.5 3.358-7.5 7.5s3.358 7.5 7.5 7.5h21.138l16.315 16.315h-6.137c-4.142 0-7.5 3.358-7.5 7.5s3.358 7.5 7.5 7.5h21.137l61.528 61.528c-31.027-8.431-86.08-28.819-131.815-74.56-5.569-5.569-10.999-11.513-16.137-17.665-2.656-3.181-7.386-3.604-10.564-.949-3.179 2.655-3.604 7.385-.949 10.564 5.424 6.495 11.158 12.771 17.042 18.655 11.589 11.59 23.711 21.595 35.795 30.211-67.622 2.933-120.418 38.773-122.724 40.361-2.031 1.4-3.245 3.709-3.245 6.177s1.213 4.776 3.245 6.176c2.404 1.656 59.7 40.559 131.465 40.559 11.261 0 22.026-.958 32.182-2.58-24.425 31.043-31.101 65.964-31.406 67.625-.447 2.426.328 4.917 2.073 6.661 1.419 1.419 3.333 2.197 5.303 2.197.451 0 .906-.041 1.358-.124 1.882-.346 46.468-8.866 79.728-42.125 10.834-10.834 18.767-22.596 24.553-33.606v68.355c0 4.142 3.358 7.5 7.5 7.5s7.5-3.358 7.5-7.5v-68.356c5.786 11.01 13.719 22.773 24.553 33.606 33.259 33.26 77.846 41.779 79.728 42.125.452.083.907.124 1.358.124 1.971 0 3.884-.777 5.303-2.197 1.745-1.744 2.52-4.235 2.073-6.661-.306-1.661-6.981-36.582-31.406-67.625 10.157 1.622 20.922 2.58 32.182 2.58 71.765 0 129.061-38.902 131.465-40.559 2.032-1.4 3.245-3.709 3.245-6.176s-1.215-4.776-3.247-6.176zm-486.808 6.177c19.053-10.746 62.683-31.735 112.763-31.735 5.067 0 10.19.227 15.257.654 18.198 10.575 35.397 18.15 49.485 23.422.145.054.286.105.43.159h-40.857c-4.142 0-7.5 3.358-7.5 7.5s3.358 7.5 7.5 7.5h70.277c-20.776 10.823-54.59 24.235-94.591 24.235-50.081 0-93.713-20.991-112.764-31.735zm191.394 67.782c-20.04 20.04-45.342 30.251-59.948 34.825 4.574-14.608 14.785-39.908 34.825-59.948 1.494-1.493 3.023-2.917 4.557-4.289 21.875-6.293 39.527-14.964 51.342-21.765-4.631 14.034-13.692 34.093-30.776 51.177zm110.441-25.123c20.04 20.04 30.251 45.342 34.825 59.948-14.608-4.574-39.908-14.785-59.948-34.825-17.085-17.085-26.146-37.146-30.777-51.177 11.815 6.801 29.467 15.472 51.343 21.765 1.534 1.372 3.063 2.795 4.557 4.289zm53.508-10.924c-40.003 0-73.817-13.413-94.592-24.235h70.277c4.142 0 7.5-3.358 7.5-7.5s-3.358-7.5-7.5-7.5h-40.857c.144-.054.285-.104.43-.159 14.088-5.272 31.287-12.847 49.485-23.422 5.067-.427 10.19-.654 15.257-.654 50.08 0 93.712 20.99 112.763 31.735-19.053 10.745-62.683 31.735-112.763 31.735z"/></g></svg>